# Blender 4.1.1
# www.blender.org
o BézierCurve.002
v 1.254605 0.005124 -0.040741
v 1.253962 0.003839 -0.041488
v 1.252870 0.001410 -0.042761
v 1.252294 -0.000000 -0.043434
v 1.258673 -0.000000 -0.036142
v 1.257639 0.001470 -0.037310
v 1.255702 0.003861 -0.039499
v 1.125768 0.017348 0.056642
v 1.123830 0.012780 0.053713
v 1.120540 0.004142 0.048733
v 1.118801 -0.000979 0.046098
v 1.137990 -0.000717 0.074729
v 1.134884 0.004337 0.070136
v 1.129066 0.012851 0.061524
v 0.966568 0.029800 0.150467
v 0.963767 0.021950 0.145117
v 0.959011 0.007105 0.136019
v 0.956497 -0.001694 0.131206
v 0.984164 -0.001267 0.183595
v 0.979692 0.007424 0.175181
v 0.971315 0.022066 0.159410
v 0.781405 0.042455 0.237245
v 0.778117 0.031323 0.229334
v 0.772529 0.010274 0.215884
v 0.769577 -0.002204 0.208770
v 0.802002 -0.001617 0.286285
v 0.796768 0.010713 0.273828
v 0.786963 0.031484 0.250482
v 0.574694 0.055290 0.313471
v 0.571295 0.040877 0.302909
v 0.565519 0.013622 0.284954
v 0.562465 -0.002535 0.275457
v 0.595914 -0.001785 0.378989
v 0.590523 0.014182 0.362347
v 0.580421 0.041082 0.331156
v 0.350853 0.068282 0.375640
v 0.347763 0.050588 0.362373
v 0.342512 0.017126 0.339817
v 0.339736 -0.002709 0.327887
v 0.370062 -0.001795 0.457980
v 0.365182 0.017810 0.437064
v 0.356037 0.050837 0.397865
v 0.114300 0.081408 0.420247
v 0.112016 0.060431 0.404260
v 0.108133 0.020762 0.377081
v 0.106078 -0.002753 0.362707
v 0.128408 -0.001668 0.519483
v 0.124825 0.021573 0.494275
v 0.118108 0.060727 0.447032
v -0.130543 0.094643 0.443784
v -0.131422 0.070382 0.425130
v -0.132920 0.024506 0.393417
v -0.133715 -0.002690 0.376644
v -0.125256 -0.001427 0.559586
v -0.126597 0.025450 0.530170
v -0.129114 0.070727 0.475041
v -0.379232 0.107964 0.442749
v -0.377519 0.080419 0.421620
v -0.374612 0.028331 0.385699
v -0.373078 -0.002546 0.366700
v -0.390153 -0.001089 0.573914
v -0.387376 0.029420 0.540595
v -0.382177 0.080816 0.478152
v -0.612143 0.121347 0.404916
v -0.605891 0.090514 0.382037
v -0.595271 0.032210 0.343140
v -0.589659 -0.002352 0.322568
v -0.651386 -0.000669 0.546925
v -0.641413 0.033468 0.510852
v -0.622732 0.090973 0.443246
v -0.808505 0.134770 0.327217
v -0.796144 0.100645 0.304079
v -0.775140 0.036117 0.264743
v -0.764039 -0.002133 0.243938
v -0.885848 0.000000 0.470773
v -0.866195 0.037573 0.434307
v -0.829376 0.101176 0.365965
v -0.962126 0.148208 0.219890
v -0.942705 0.110786 0.198705
v -0.909704 0.040026 0.162686
v -0.892259 -0.001916 0.143633
v -1.083496 0.000000 0.351221
v -1.052657 0.041717 0.317862
v -0.994879 0.111403 0.255340
v -1.066810 0.161638 0.093208
v -1.039760 0.120912 0.077583
v -0.993792 0.043908 0.051013
v -0.969493 -0.001733 0.036955
v -1.235755 0.000913 0.189824
v -1.192829 0.045886 0.165285
v -1.112402 0.121634 0.119289
v -1.116425 0.175036 -0.042539
v -1.083011 0.130997 -0.047111
v -1.026228 0.047734 -0.054898
v -0.996211 -0.001614 -0.059024
v -1.325060 0.001504 -0.014867
v -1.272050 0.050065 -0.021889
v -1.172728 0.131848 -0.035064
v -1.104946 0.188379 -0.177164
v -1.070615 0.141022 -0.165664
v -1.012274 0.051493 -0.146135
v -0.981433 -0.001566 -0.135821
v -1.319327 0.002068 -0.249722
v -1.264858 0.054210 -0.231279
v -1.162801 0.142014 -0.196739
v -1.026254 0.201644 -0.300719
v -0.998498 0.150978 -0.273755
v -0.951332 0.055194 -0.227946
v -0.926400 -0.001570 -0.203737
v -1.199685 0.002506 -0.469715
v -1.155618 0.058241 -0.426771
v -1.073056 0.152090 -0.346320
v -0.873966 0.214808 -0.403200
v -0.856627 0.160844 -0.365822
v -0.827168 0.058828 -0.302313
v -0.811598 -0.001629 -0.268747
v -0.982495 0.002766 -0.637168
v -0.954918 0.062113 -0.577716
v -0.903252 0.162043 -0.466335
v 1.254605 -0.005124 -0.040741
v 1.253962 -0.003839 -0.041488
v 1.252870 -0.001410 -0.042761
v 1.257639 -0.001470 -0.037310
v 1.255702 -0.003861 -0.039499
v 1.125768 -0.017348 0.056642
v 1.123830 -0.012780 0.053713
v 1.120540 -0.004142 0.048733
v 1.118801 0.000979 0.046098
v 1.137990 0.000717 0.074729
v 1.134884 -0.004337 0.070136
v 1.129066 -0.012851 0.061524
v 0.966568 -0.029800 0.150467
v 0.963767 -0.021950 0.145117
v 0.959011 -0.007105 0.136019
v 0.956497 0.001694 0.131206
v 0.984164 0.001267 0.183595
v 0.979692 -0.007424 0.175181
v 0.971315 -0.022066 0.159410
v 0.781405 -0.042455 0.237245
v 0.778117 -0.031323 0.229334
v 0.772529 -0.010274 0.215884
v 0.769577 0.002204 0.208770
v 0.802002 0.001617 0.286285
v 0.796768 -0.010713 0.273828
v 0.786963 -0.031484 0.250482
v 0.574694 -0.055290 0.313471
v 0.571295 -0.040877 0.302909
v 0.565519 -0.013622 0.284954
v 0.562465 0.002535 0.275457
v 0.595914 0.001785 0.378989
v 0.590523 -0.014182 0.362347
v 0.580421 -0.041082 0.331156
v 0.350853 -0.068282 0.375640
v 0.347763 -0.050588 0.362373
v 0.342512 -0.017126 0.339817
v 0.339736 0.002709 0.327887
v 0.370062 0.001795 0.457980
v 0.365182 -0.017810 0.437064
v 0.356037 -0.050837 0.397865
v 0.114300 -0.081408 0.420247
v 0.112016 -0.060431 0.404260
v 0.108133 -0.020762 0.377081
v 0.106078 0.002753 0.362707
v 0.128408 0.001668 0.519483
v 0.124825 -0.021573 0.494275
v 0.118108 -0.060726 0.447032
v -0.130543 -0.094642 0.443784
v -0.131422 -0.070382 0.425130
v -0.132920 -0.024506 0.393417
v -0.133715 0.002690 0.376644
v -0.125256 0.001427 0.559586
v -0.126597 -0.025450 0.530170
v -0.129114 -0.070727 0.475041
v -0.379232 -0.107964 0.442749
v -0.377519 -0.080419 0.421620
v -0.374612 -0.028331 0.385699
v -0.373078 0.002546 0.366700
v -0.390153 0.001089 0.573914
v -0.387376 -0.029420 0.540595
v -0.382177 -0.080816 0.478152
v -0.612143 -0.121347 0.404916
v -0.605891 -0.090514 0.382037
v -0.595271 -0.032210 0.343140
v -0.589659 0.002352 0.322568
v -0.651386 0.000669 0.546925
v -0.641413 -0.033468 0.510852
v -0.622732 -0.090973 0.443246
v -0.808505 -0.134770 0.327217
v -0.796144 -0.100645 0.304079
v -0.775140 -0.036117 0.264743
v -0.764039 0.002133 0.243938
v -0.866195 -0.037573 0.434307
v -0.829376 -0.101176 0.365965
v -0.962126 -0.148208 0.219890
v -0.942705 -0.110786 0.198705
v -0.909704 -0.040026 0.162686
v -0.892259 0.001916 0.143633
v -1.052657 -0.041717 0.317862
v -0.994879 -0.111403 0.255340
v -1.066810 -0.161638 0.093208
v -1.039760 -0.120912 0.077583
v -0.993792 -0.043908 0.051013
v -0.969493 0.001733 0.036955
v -1.235755 -0.000913 0.189824
v -1.192829 -0.045886 0.165285
v -1.112402 -0.121634 0.119289
v -1.116425 -0.175036 -0.042539
v -1.083011 -0.130997 -0.047111
v -1.026228 -0.047734 -0.054898
v -0.996211 0.001614 -0.059024
v -1.325060 -0.001504 -0.014867
v -1.272050 -0.050065 -0.021889
v -1.172728 -0.131848 -0.035064
v -1.104946 -0.188379 -0.177164
v -1.070615 -0.141022 -0.165664
v -1.012274 -0.051493 -0.146135
v -0.981433 0.001566 -0.135821
v -1.319327 -0.002068 -0.249722
v -1.264858 -0.054210 -0.231279
v -1.162801 -0.142014 -0.196739
v -1.026254 -0.201644 -0.300719
v -0.998498 -0.150978 -0.273755
v -0.951332 -0.055194 -0.227946
v -0.926400 0.001570 -0.203737
v -1.199685 -0.002506 -0.469715
v -1.155618 -0.058241 -0.426771
v -1.073056 -0.152090 -0.346320
v -0.873966 -0.214808 -0.403200
v -0.856627 -0.160844 -0.365822
v -0.827168 -0.058828 -0.302313
v -0.811598 0.001629 -0.268747
v -0.982495 -0.002766 -0.637168
v -0.954918 -0.062113 -0.577716
v -0.903252 -0.162043 -0.466335
vn -0.0034 0.9917 -0.1289
vn -0.4507 0.5885 -0.6713
vn -0.4682 0.5476 -0.6935
vn -0.5601 -0.0000 -0.8284
vn 0.6729 -0.0000 0.7397
vn 0.4437 0.7525 0.4866
vn 0.4222 0.7813 0.4597
vn 0.0007 0.9919 -0.1269
vn -0.4131 0.5896 -0.6941
vn -0.4297 0.5477 -0.7179
vn -0.4366 0.5256 -0.7301
vn 0.4218 0.7363 0.5291
vn 0.4115 0.7538 0.5123
vn 0.3917 0.7825 0.4841
vn 0.0056 0.9919 -0.1271
vn -0.3421 0.5895 -0.7317
vn -0.3562 0.5472 -0.7574
vn -0.3621 0.5249 -0.7703
vn 0.3588 0.7378 0.5718
vn 0.3503 0.7549 0.5545
vn 0.3342 0.7828 0.5249
vn 0.0120 0.9919 -0.1261
vn -0.2778 0.5897 -0.7584
vn -0.2895 0.5474 -0.7852
vn -0.2943 0.5250 -0.7986
vn 0.3029 0.7378 0.6033
vn 0.2959 0.7549 0.5853
vn 0.2826 0.7828 0.5543
vn 0.0196 0.9921 -0.1243
vn -0.2151 0.5898 -0.7784
vn -0.2245 0.5475 -0.8061
vn -0.2283 0.5251 -0.8198
vn 0.2491 0.7378 0.6274
vn 0.2436 0.7549 0.6089
vn 0.2331 0.7828 0.5769
vn 0.0282 0.9922 -0.1213
vn -0.1506 0.5898 -0.7934
vn -0.1576 0.5475 -0.8218
vn -0.1602 0.5252 -0.8358
vn 0.1943 0.7378 0.6465
vn 0.1904 0.7549 0.6276
vn 0.1827 0.7828 0.5948
vn 0.0378 0.9924 -0.1169
vn -0.0812 0.5898 -0.8034
vn -0.0857 0.5475 -0.8324
vn -0.0871 0.5252 -0.8465
vn 0.1359 0.7378 0.6612
vn 0.1337 0.7549 0.6420
vn 0.1291 0.7828 0.6087
vn 0.0483 0.9927 -0.1105
vn -0.0047 0.5898 -0.8076
vn -0.0064 0.5475 -0.8368
vn -0.0064 0.5251 -0.8510
vn 0.0712 0.7376 0.6715
vn 0.0711 0.7547 0.6522
vn 0.0699 0.7826 0.6186
vn 0.0625 0.9939 -0.0905
vn 0.0997 0.5901 -0.8012
vn 0.1018 0.5478 -0.8304
vn 0.1041 0.5252 -0.8446
vn -0.0165 0.7376 0.6751
vn -0.0133 0.7544 0.6563
vn -0.0095 0.7824 0.6227
vn 0.0796 0.9948 -0.0635
vn 0.2495 0.5903 -0.7676
vn 0.2574 0.5481 -0.7959
vn 0.2630 0.5252 -0.8093
vn -0.1395 0.7383 0.6599
vn -0.1322 0.7547 0.6426
vn -0.1217 0.7824 0.6107
vn 0.0964 0.9946 -0.0376
vn 0.4185 0.5897 -0.6907
vn 0.4329 0.5474 -0.7162
vn 0.4420 0.5245 -0.7277
vn -0.4164 -0.0000 0.9092
vn -0.2691 0.7543 0.5988
vn -0.2504 0.7822 0.5705
vn 0.1032 0.9947 -0.0005
vn 0.5816 0.5894 -0.5606
vn 0.6024 0.5471 -0.5812
vn 0.6148 0.5240 -0.5894
vn -0.6281 -0.0000 0.7781
vn -0.4084 0.7534 0.5153
vn -0.3814 0.7818 0.4933
vn 0.0894 0.9949 0.0464
vn 0.7266 0.5892 -0.3535
vn 0.7532 0.5469 -0.3654
vn 0.7686 0.5236 -0.3677
vn -0.5632 0.7374 0.3729
vn -0.5440 0.7535 0.3691
vn -0.5103 0.7815 0.3589
vn 0.0455 0.9952 0.0867
vn 0.8065 0.5895 -0.0451
vn 0.8359 0.5474 -0.0417
vn 0.8513 0.5236 -0.0328
vn -0.6610 0.7392 0.1292
vn -0.6421 0.7547 0.1349
vn -0.6067 0.7823 0.1410
vn -0.0051 0.9955 0.0949
vn 0.7426 0.5890 0.3187
vn 0.7654 0.5464 0.3399
vn 0.7733 0.5222 0.3595
vn -0.6486 0.7407 -0.1749
vn -0.6343 0.7561 -0.1612
vn -0.6042 0.7842 -0.1411
vn -0.0248 0.9959 0.0874
vn 0.5399 0.5864 0.6038
vn 0.5525 0.5432 0.6322
vn 0.5537 0.5191 0.6511
vn -0.5097 0.7410 -0.4372
vn -0.5012 0.7566 -0.4198
vn -0.4804 0.7849 -0.3914
vn -0.0264 0.9958 0.0882
vn 0.4136 0.5807 0.7012
vn 0.4229 0.5374 0.7296
vn 0.4264 0.5141 0.7442
vn -0.4154 0.7352 -0.5357
vn -0.4064 0.7511 -0.5202
vn -0.3905 0.7799 -0.4891
vn -0.0034 -0.9917 -0.1289
vn -0.4507 -0.5885 -0.6713
vn -0.4682 -0.5476 -0.6935
vn 0.4437 -0.7525 0.4866
vn 0.4222 -0.7813 0.4597
vn 0.0007 -0.9919 -0.1269
vn -0.4131 -0.5896 -0.6941
vn -0.4297 -0.5477 -0.7179
vn -0.4366 -0.5256 -0.7301
vn 0.4218 -0.7363 0.5291
vn 0.4115 -0.7538 0.5123
vn 0.3917 -0.7825 0.4841
vn 0.0056 -0.9919 -0.1271
vn -0.3421 -0.5895 -0.7317
vn -0.3562 -0.5472 -0.7574
vn -0.3621 -0.5249 -0.7703
vn 0.3588 -0.7378 0.5718
vn 0.3503 -0.7549 0.5545
vn 0.3342 -0.7828 0.5249
vn 0.0120 -0.9919 -0.1261
vn -0.2778 -0.5897 -0.7584
vn -0.2895 -0.5474 -0.7852
vn -0.2943 -0.5250 -0.7986
vn 0.3029 -0.7378 0.6033
vn 0.2959 -0.7549 0.5853
vn 0.2826 -0.7828 0.5543
vn 0.0196 -0.9921 -0.1243
vn -0.2151 -0.5898 -0.7784
vn -0.2245 -0.5475 -0.8061
vn -0.2283 -0.5251 -0.8198
vn 0.2491 -0.7378 0.6274
vn 0.2436 -0.7549 0.6089
vn 0.2331 -0.7828 0.5769
vn 0.0282 -0.9922 -0.1213
vn -0.1506 -0.5898 -0.7934
vn -0.1576 -0.5475 -0.8218
vn -0.1602 -0.5252 -0.8358
vn 0.1943 -0.7378 0.6465
vn 0.1904 -0.7549 0.6276
vn 0.1827 -0.7828 0.5948
vn 0.0378 -0.9924 -0.1169
vn -0.0812 -0.5898 -0.8034
vn -0.0857 -0.5475 -0.8324
vn -0.0871 -0.5252 -0.8465
vn 0.1359 -0.7378 0.6612
vn 0.1337 -0.7549 0.6420
vn 0.1291 -0.7828 0.6087
vn 0.0483 -0.9927 -0.1105
vn -0.0047 -0.5898 -0.8076
vn -0.0064 -0.5475 -0.8368
vn -0.0064 -0.5251 -0.8510
vn 0.0712 -0.7376 0.6715
vn 0.0711 -0.7547 0.6522
vn 0.0699 -0.7826 0.6186
vn 0.0625 -0.9939 -0.0905
vn 0.0997 -0.5901 -0.8012
vn 0.1018 -0.5478 -0.8304
vn 0.1041 -0.5252 -0.8446
vn -0.0165 -0.7376 0.6751
vn -0.0133 -0.7544 0.6563
vn -0.0095 -0.7824 0.6227
vn 0.0796 -0.9948 -0.0635
vn 0.2495 -0.5903 -0.7676
vn 0.2574 -0.5481 -0.7959
vn 0.2630 -0.5252 -0.8093
vn -0.1395 -0.7383 0.6599
vn -0.1322 -0.7547 0.6426
vn -0.1217 -0.7824 0.6107
vn 0.0964 -0.9946 -0.0376
vn 0.4185 -0.5897 -0.6907
vn 0.4329 -0.5474 -0.7162
vn 0.4420 -0.5245 -0.7277
vn -0.2691 -0.7543 0.5988
vn -0.2504 -0.7822 0.5705
vn 0.1032 -0.9947 -0.0005
vn 0.5816 -0.5894 -0.5606
vn 0.6024 -0.5471 -0.5812
vn 0.6148 -0.5240 -0.5894
vn -0.4084 -0.7534 0.5153
vn -0.3814 -0.7818 0.4933
vn 0.0894 -0.9949 0.0464
vn 0.7266 -0.5892 -0.3535
vn 0.7532 -0.5469 -0.3654
vn 0.7686 -0.5236 -0.3677
vn -0.5632 -0.7374 0.3729
vn -0.5440 -0.7535 0.3691
vn -0.5103 -0.7815 0.3589
vn 0.0455 -0.9952 0.0867
vn 0.8065 -0.5895 -0.0451
vn 0.8359 -0.5474 -0.0417
vn 0.8513 -0.5236 -0.0328
vn -0.6610 -0.7392 0.1292
vn -0.6421 -0.7547 0.1349
vn -0.6067 -0.7823 0.1410
vn -0.0051 -0.9955 0.0949
vn 0.7426 -0.5890 0.3187
vn 0.7654 -0.5464 0.3399
vn 0.7733 -0.5222 0.3595
vn -0.6486 -0.7407 -0.1749
vn -0.6343 -0.7561 -0.1612
vn -0.6042 -0.7842 -0.1411
vn -0.0248 -0.9959 0.0874
vn 0.5399 -0.5864 0.6038
vn 0.5525 -0.5432 0.6322
vn 0.5537 -0.5191 0.6511
vn -0.5097 -0.7410 -0.4372
vn -0.5012 -0.7566 -0.4198
vn -0.4804 -0.7849 -0.3914
vn -0.0264 -0.9958 0.0882
vn 0.4136 -0.5807 0.7012
vn 0.4229 -0.5374 0.7296
vn 0.4264 -0.5141 0.7442
vn -0.4154 -0.7352 -0.5357
vn -0.4064 -0.7511 -0.5202
vn -0.3905 -0.7799 -0.4891
vt 0.977473 0.500439
vt 0.917995 0.500439
vt 0.917995 0.656850
vt 0.977473 0.656850
vt 0.977473 0.344029
vt 0.917995 0.344029
vt 0.977473 0.187618
vt 0.917995 0.187618
vt 0.977473 0.031207
vt 0.917995 0.031207
vt 0.977473 0.813261
vt 0.917995 0.813261
vt 0.917995 0.969671
vt 0.977473 0.969671
vt 0.858517 0.500439
vt 0.858517 0.656850
vt 0.858517 0.344029
vt 0.858517 0.187618
vt 0.858517 0.031207
vt 0.858517 0.813261
vt 0.858517 0.969671
vt 0.799038 0.500439
vt 0.799038 0.656850
vt 0.799038 0.344029
vt 0.799038 0.187618
vt 0.799038 0.031207
vt 0.799038 0.813261
vt 0.799038 0.969671
vt 0.739560 0.500439
vt 0.739560 0.656850
vt 0.739560 0.344029
vt 0.739560 0.187618
vt 0.739560 0.031207
vt 0.739560 0.813261
vt 0.739560 0.969671
vt 0.680082 0.500439
vt 0.680082 0.656850
vt 0.680082 0.344029
vt 0.680082 0.187618
vt 0.680082 0.031207
vt 0.680082 0.813261
vt 0.680082 0.969671
vt 0.620603 0.500439
vt 0.620603 0.656850
vt 0.620603 0.344029
vt 0.620603 0.187618
vt 0.620603 0.031207
vt 0.620603 0.813261
vt 0.620603 0.969671
vt 0.561125 0.500439
vt 0.561125 0.656850
vt 0.561125 0.344029
vt 0.561125 0.187618
vt 0.561125 0.031207
vt 0.561125 0.813261
vt 0.561125 0.969671
vt 0.501647 0.500439
vt 0.501647 0.656850
vt 0.501647 0.344029
vt 0.501647 0.187618
vt 0.501647 0.031207
vt 0.501647 0.813261
vt 0.501647 0.969671
vt 0.442168 0.500439
vt 0.442168 0.656850
vt 0.442168 0.344029
vt 0.442168 0.187618
vt 0.442168 0.031207
vt 0.442168 0.813261
vt 0.442168 0.969671
vt 0.382690 0.500439
vt 0.382690 0.656850
vt 0.382690 0.344029
vt 0.382690 0.187618
vt 0.382690 0.031207
vt 0.382690 0.813261
vt 0.382690 0.969671
vt 0.323212 0.500439
vt 0.323212 0.656850
vt 0.323212 0.344029
vt 0.323212 0.187618
vt 0.323212 0.031207
vt 0.323212 0.813261
vt 0.323212 0.969671
vt 0.263733 0.500439
vt 0.263733 0.656850
vt 0.263733 0.344029
vt 0.263733 0.187618
vt 0.263733 0.031207
vt 0.263733 0.813261
vt 0.263733 0.969671
vt 0.204255 0.500439
vt 0.204255 0.656850
vt 0.204255 0.344028
vt 0.204255 0.187618
vt 0.204255 0.031207
vt 0.204255 0.813261
vt 0.204255 0.969671
vt 0.144777 0.500439
vt 0.144777 0.656850
vt 0.144777 0.344028
vt 0.144777 0.187618
vt 0.144777 0.031207
vt 0.144777 0.813261
vt 0.144777 0.969671
vt 0.085298 0.500439
vt 0.085298 0.656850
vt 0.085298 0.344028
vt 0.085298 0.187618
vt 0.085298 0.031207
vt 0.085298 0.813261
vt 0.085298 0.969671
vt 0.025820 0.500439
vt 0.025820 0.656850
vt 0.025820 0.344028
vt 0.025820 0.187618
vt 0.025820 0.031207
vt 0.025820 0.813261
vt 0.025820 0.969671
s 1
f 1/1/1 8/2/8 14/3/14 7/4/7
f 2/5/2 9/6/9 8/2/8 1/1/1
f 3/7/3 10/8/10 9/6/9 2/5/2
f 4/9/4 11/10/11 10/8/10 3/7/3
f 6/11/6 13/12/13 12/13/12 5/14/5
f 7/4/7 14/3/14 13/12/13 6/11/6
f 8/2/8 15/15/15 21/16/21 14/3/14
f 9/6/9 16/17/16 15/15/15 8/2/8
f 10/8/10 17/18/17 16/17/16 9/6/9
f 11/10/11 18/19/18 17/18/17 10/8/10
f 13/12/13 20/20/20 19/21/19 12/13/12
f 14/3/14 21/16/21 20/20/20 13/12/13
f 15/15/15 22/22/22 28/23/28 21/16/21
f 16/17/16 23/24/23 22/22/22 15/15/15
f 17/18/17 24/25/24 23/24/23 16/17/16
f 18/19/18 25/26/25 24/25/24 17/18/17
f 20/20/20 27/27/27 26/28/26 19/21/19
f 21/16/21 28/23/28 27/27/27 20/20/20
f 22/22/22 29/29/29 35/30/35 28/23/28
f 23/24/23 30/31/30 29/29/29 22/22/22
f 24/25/24 31/32/31 30/31/30 23/24/23
f 25/26/25 32/33/32 31/32/31 24/25/24
f 27/27/27 34/34/34 33/35/33 26/28/26
f 28/23/28 35/30/35 34/34/34 27/27/27
f 29/29/29 36/36/36 42/37/42 35/30/35
f 30/31/30 37/38/37 36/36/36 29/29/29
f 31/32/31 38/39/38 37/38/37 30/31/30
f 32/33/32 39/40/39 38/39/38 31/32/31
f 34/34/34 41/41/41 40/42/40 33/35/33
f 35/30/35 42/37/42 41/41/41 34/34/34
f 36/36/36 43/43/43 49/44/49 42/37/42
f 37/38/37 44/45/44 43/43/43 36/36/36
f 38/39/38 45/46/45 44/45/44 37/38/37
f 39/40/39 46/47/46 45/46/45 38/39/38
f 41/41/41 48/48/48 47/49/47 40/42/40
f 42/37/42 49/44/49 48/48/48 41/41/41
f 43/43/43 50/50/50 56/51/56 49/44/49
f 44/45/44 51/52/51 50/50/50 43/43/43
f 45/46/45 52/53/52 51/52/51 44/45/44
f 46/47/46 53/54/53 52/53/52 45/46/45
f 48/48/48 55/55/55 54/56/54 47/49/47
f 49/44/49 56/51/56 55/55/55 48/48/48
f 50/50/50 57/57/57 63/58/63 56/51/56
f 51/52/51 58/59/58 57/57/57 50/50/50
f 52/53/52 59/60/59 58/59/58 51/52/51
f 53/54/53 60/61/60 59/60/59 52/53/52
f 55/55/55 62/62/62 61/63/61 54/56/54
f 56/51/56 63/58/63 62/62/62 55/55/55
f 57/57/57 64/64/64 70/65/70 63/58/63
f 58/59/58 65/66/65 64/64/64 57/57/57
f 59/60/59 66/67/66 65/66/65 58/59/58
f 60/61/60 67/68/67 66/67/66 59/60/59
f 62/62/62 69/69/69 68/70/68 61/63/61
f 63/58/63 70/65/70 69/69/69 62/62/62
f 64/64/64 71/71/71 77/72/77 70/65/70
f 65/66/65 72/73/72 71/71/71 64/64/64
f 66/67/66 73/74/73 72/73/72 65/66/65
f 67/68/67 74/75/74 73/74/73 66/67/66
f 69/69/69 76/76/76 75/77/75 68/70/68
f 70/65/70 77/72/77 76/76/76 69/69/69
f 71/71/71 78/78/78 84/79/84 77/72/77
f 72/73/72 79/80/79 78/78/78 71/71/71
f 73/74/73 80/81/80 79/80/79 72/73/72
f 74/75/74 81/82/81 80/81/80 73/74/73
f 76/76/76 83/83/83 82/84/82 75/77/75
f 77/72/77 84/79/84 83/83/83 76/76/76
f 78/78/78 85/85/85 91/86/91 84/79/84
f 79/80/79 86/87/86 85/85/85 78/78/78
f 80/81/80 87/88/87 86/87/86 79/80/79
f 81/82/81 88/89/88 87/88/87 80/81/80
f 83/83/83 90/90/90 89/91/89 82/84/82
f 84/79/84 91/86/91 90/90/90 83/83/83
f 85/85/85 92/92/92 98/93/98 91/86/91
f 86/87/86 93/94/93 92/92/92 85/85/85
f 87/88/87 94/95/94 93/94/93 86/87/86
f 88/89/88 95/96/95 94/95/94 87/88/87
f 90/90/90 97/97/97 96/98/96 89/91/89
f 91/86/91 98/93/98 97/97/97 90/90/90
f 92/92/92 99/99/99 105/100/105 98/93/98
f 93/94/93 100/101/100 99/99/99 92/92/92
f 94/95/94 101/102/101 100/101/100 93/94/93
f 95/96/95 102/103/102 101/102/101 94/95/94
f 97/97/97 104/104/104 103/105/103 96/98/96
f 98/93/98 105/100/105 104/104/104 97/97/97
f 99/99/99 106/106/106 112/107/112 105/100/105
f 100/101/100 107/108/107 106/106/106 99/99/99
f 101/102/101 108/109/108 107/108/107 100/101/100
f 102/103/102 109/110/109 108/109/108 101/102/101
f 104/104/104 111/111/111 110/112/110 103/105/103
f 105/100/105 112/107/112 111/111/111 104/104/104
f 106/106/106 113/113/113 119/114/119 112/107/112
f 107/108/107 114/115/114 113/113/113 106/106/106
f 108/109/108 115/116/115 114/115/114 107/108/107
f 109/110/109 116/117/116 115/116/115 108/109/108
f 111/111/111 118/118/118 117/119/117 110/112/110
f 112/107/112 119/114/119 118/118/118 111/111/111
f 120/1/120 124/4/124 131/3/131 125/2/125
f 121/5/121 120/1/120 125/2/125 126/6/126
f 122/7/122 121/5/121 126/6/126 127/8/127
f 4/9/4 122/7/122 127/8/127 128/10/128
f 123/11/123 5/14/5 129/13/129 130/12/130
f 124/4/124 123/11/123 130/12/130 131/3/131
f 125/2/125 131/3/131 138/16/138 132/15/132
f 126/6/126 125/2/125 132/15/132 133/17/133
f 127/8/127 126/6/126 133/17/133 134/18/134
f 128/10/128 127/8/127 134/18/134 135/19/135
f 130/12/130 129/13/129 136/21/136 137/20/137
f 131/3/131 130/12/130 137/20/137 138/16/138
f 132/15/132 138/16/138 145/23/145 139/22/139
f 133/17/133 132/15/132 139/22/139 140/24/140
f 134/18/134 133/17/133 140/24/140 141/25/141
f 135/19/135 134/18/134 141/25/141 142/26/142
f 137/20/137 136/21/136 143/28/143 144/27/144
f 138/16/138 137/20/137 144/27/144 145/23/145
f 139/22/139 145/23/145 152/30/152 146/29/146
f 140/24/140 139/22/139 146/29/146 147/31/147
f 141/25/141 140/24/140 147/31/147 148/32/148
f 142/26/142 141/25/141 148/32/148 149/33/149
f 144/27/144 143/28/143 150/35/150 151/34/151
f 145/23/145 144/27/144 151/34/151 152/30/152
f 146/29/146 152/30/152 159/37/159 153/36/153
f 147/31/147 146/29/146 153/36/153 154/38/154
f 148/32/148 147/31/147 154/38/154 155/39/155
f 149/33/149 148/32/148 155/39/155 156/40/156
f 151/34/151 150/35/150 157/42/157 158/41/158
f 152/30/152 151/34/151 158/41/158 159/37/159
f 153/36/153 159/37/159 166/44/166 160/43/160
f 154/38/154 153/36/153 160/43/160 161/45/161
f 155/39/155 154/38/154 161/45/161 162/46/162
f 156/40/156 155/39/155 162/46/162 163/47/163
f 158/41/158 157/42/157 164/49/164 165/48/165
f 159/37/159 158/41/158 165/48/165 166/44/166
f 160/43/160 166/44/166 173/51/173 167/50/167
f 161/45/161 160/43/160 167/50/167 168/52/168
f 162/46/162 161/45/161 168/52/168 169/53/169
f 163/47/163 162/46/162 169/53/169 170/54/170
f 165/48/165 164/49/164 171/56/171 172/55/172
f 166/44/166 165/48/165 172/55/172 173/51/173
f 167/50/167 173/51/173 180/58/180 174/57/174
f 168/52/168 167/50/167 174/57/174 175/59/175
f 169/53/169 168/52/168 175/59/175 176/60/176
f 170/54/170 169/53/169 176/60/176 177/61/177
f 172/55/172 171/56/171 178/63/178 179/62/179
f 173/51/173 172/55/172 179/62/179 180/58/180
f 174/57/174 180/58/180 187/65/187 181/64/181
f 175/59/175 174/57/174 181/64/181 182/66/182
f 176/60/176 175/59/175 182/66/182 183/67/183
f 177/61/177 176/60/176 183/67/183 184/68/184
f 179/62/179 178/63/178 185/70/185 186/69/186
f 180/58/180 179/62/179 186/69/186 187/65/187
f 181/64/181 187/65/187 193/72/193 188/71/188
f 182/66/182 181/64/181 188/71/188 189/73/189
f 183/67/183 182/66/182 189/73/189 190/74/190
f 184/68/184 183/67/183 190/74/190 191/75/191
f 186/69/186 185/70/185 75/77/75 192/76/192
f 187/65/187 186/69/186 192/76/192 193/72/193
f 188/71/188 193/72/193 199/79/199 194/78/194
f 189/73/189 188/71/188 194/78/194 195/80/195
f 190/74/190 189/73/189 195/80/195 196/81/196
f 191/75/191 190/74/190 196/81/196 197/82/197
f 192/76/192 75/77/75 82/84/82 198/83/198
f 193/72/193 192/76/192 198/83/198 199/79/199
f 194/78/194 199/79/199 206/86/206 200/85/200
f 195/80/195 194/78/194 200/85/200 201/87/201
f 196/81/196 195/80/195 201/87/201 202/88/202
f 197/82/197 196/81/196 202/88/202 203/89/203
f 198/83/198 82/84/82 204/91/204 205/90/205
f 199/79/199 198/83/198 205/90/205 206/86/206
f 200/85/200 206/86/206 213/93/213 207/92/207
f 201/87/201 200/85/200 207/92/207 208/94/208
f 202/88/202 201/87/201 208/94/208 209/95/209
f 203/89/203 202/88/202 209/95/209 210/96/210
f 205/90/205 204/91/204 211/98/211 212/97/212
f 206/86/206 205/90/205 212/97/212 213/93/213
f 207/92/207 213/93/213 220/100/220 214/99/214
f 208/94/208 207/92/207 214/99/214 215/101/215
f 209/95/209 208/94/208 215/101/215 216/102/216
f 210/96/210 209/95/209 216/102/216 217/103/217
f 212/97/212 211/98/211 218/105/218 219/104/219
f 213/93/213 212/97/212 219/104/219 220/100/220
f 214/99/214 220/100/220 227/107/227 221/106/221
f 215/101/215 214/99/214 221/106/221 222/108/222
f 216/102/216 215/101/215 222/108/222 223/109/223
f 217/103/217 216/102/216 223/109/223 224/110/224
f 219/104/219 218/105/218 225/112/225 226/111/226
f 220/100/220 219/104/219 226/111/226 227/107/227
f 221/106/221 227/107/227 234/114/234 228/113/228
f 222/108/222 221/106/221 228/113/228 229/115/229
f 223/109/223 222/108/222 229/115/229 230/116/230
f 224/110/224 223/109/223 230/116/230 231/117/231
f 226/111/226 225/112/225 232/119/232 233/118/233
f 227/107/227 226/111/226 233/118/233 234/114/234
